<svg width="375" height="188" viewBox="0 0 375 188" fill="none" xmlns="http://www.w3.org/2000/svg">
<path fill-rule="evenodd" clip-rule="evenodd" d="M157.345 5.30897L152.201 10.6163L152.198 33.8821C152.195 46.6765 151.718 73.9892 151.136 94.5732L150.078 132H145.506H140.935V103.024V74.0488H132.083H123.231V97.3902V120.732H118.402H113.574V89.6827V58.6354L105.874 51.0502L98.173 43.4634L89.7796 51.9661L81.3846 60.4673V80.417V100.367L77.266 96.4952L73.1458 92.6254L63.1832 97.8136C57.7029 100.669 50.8643 104.446 47.9882 106.21L42.7574 109.417V134.39C42.7574 155.517 42.3856 159.366 40.3432 159.366C38.2799 159.366 37.929 154.839 37.929 128.291V97.2164L32.2749 91.7368L26.6225 86.2555L16.1803 96.6063L5.73965 106.955V125.207C5.73965 136.964 5.16668 143.104 4.13018 142.463C3.12587 141.842 2.52071 126.186 2.52071 100.83V60.192L-3.1253 54.7188L-8.77292 49.2457L-16.8058 57.1592L-24.8402 65.0744V93.3803V121.688L-31.2781 127.976L-37.716 134.263V152.449V170.634H-61.858C-76.8791 170.634 -86 171.243 -86 172.244C-86 173.248 -76.612 173.854 -61.0533 173.854H-36.1065V154.047V134.241L-30.5023 128.809L-24.8982 123.377L-24.4379 162.7C-24.1369 188.287 -23.8456 178.38 -23.6026 134.339L-23.2308 66.6536L-17.1277 60.6926C-13.7703 57.4136 -10.5111 54.7317 -9.88506 54.7317C-9.25898 54.7317 -8.59427 82.0782 -8.40918 115.5C-8.22409 148.922 -7.8346 169.206 -7.5449 160.573L-7.02021 144.878H-0.640282H5.73965V168.22V191.561H11.3728H17.0059V167.415V143.268H12.1775H7.34911V125.909V108.549L16.2012 99.8049L25.0533 91.0607V126.018V160.976H29.8817C34.6618 160.976 34.7101 161.066 34.7101 169.829C34.7101 174.699 35.4343 178.683 36.3195 178.683C37.2047 178.683 37.929 174.749 37.929 169.942C37.929 162.101 38.3024 161.146 41.5503 160.686C45.1088 160.18 45.1797 159.728 45.6142 134.873L46.0568 109.576L56.0757 103.981C72.9848 94.5394 71.7278 93.7892 71.7278 113.316V130.39H64.4852H57.2426V159.366V188.341H65.2513H73.2616L73.701 160.573L74.142 132.805L79.3728 132.301L84.6036 131.796V96.0059V60.2145L91.0414 53.9268L97.4793 47.6391L97.8237 75.7342L98.1682 103.829L99.0308 75.9757L99.8935 48.1237L105.929 53.6564L111.965 59.1907V89.9612V120.732H105.527H99.0888V129.585V138.439H106.331H113.574V131.195C113.574 123.99 113.605 123.951 119.207 123.951H124.84V100.61V77.2683H132.083H139.325V105.439V133.61H144.959H150.592V165.805V198H157.03H163.467V165V132H157.834H152.201V108.782C152.201 85.8032 152.246 85.5102 156.627 80.2962L161.053 75.0291L161.922 99.8918L162.79 124.756L163.129 95.3781L163.467 66L171.112 65.7296C178.69 65.4607 178.701 65.4527 172.32 64.8168C162.764 63.8639 161.338 61.1707 170.388 61.1707C174.549 61.1707 177.953 60.4463 177.953 59.561C177.953 58.6756 174.549 57.9512 170.388 57.9512C160.896 57.9512 162.973 55.1857 173.124 54.31L180.367 53.6838L171.917 53.4037C161.38 53.0527 160.728 49.999 171.112 49.632C178.69 49.3632 178.701 49.3551 172.32 48.7193C162.764 47.7663 161.338 45.0732 170.388 45.0732C174.549 45.0732 177.953 44.3488 177.953 43.4634C177.953 42.578 174.549 41.8537 170.388 41.8537C160.896 41.8537 162.973 39.0881 173.124 38.2124L180.367 37.5862L171.917 37.3061C161.38 36.9552 160.728 33.9015 171.112 33.5344C178.69 33.2656 178.701 33.2576 172.32 32.6217C162.764 31.6687 161.338 28.9756 170.388 28.9756C174.549 28.9756 177.953 28.2512 177.953 27.3659C177.953 26.4805 174.549 25.7561 170.388 25.7561C160.896 25.7561 162.973 22.9905 173.124 22.1148L180.367 21.4886L171.917 21.2085C161.38 20.8576 160.728 17.8039 171.112 17.4369C178.69 17.1681 178.701 17.16 172.32 16.5241C162.764 15.5712 161.338 12.878 170.388 12.878C174.549 12.878 177.953 12.1537 177.953 11.2683C177.953 10.3829 174.549 9.65854 170.388 9.65854C160.896 9.65854 162.973 6.89297 173.124 6.01727L180.367 5.39107L171.822 5.11098C159.55 4.70693 162.922 1.60976 175.633 1.60976H186V66.8049V132H190.828H195.657V114.573C195.657 98.0663 195.869 96.9476 199.68 93.3659C202.866 90.3717 203.704 88.0086 203.704 82.0139C203.704 77.2474 204.599 73.7011 206.118 72.439C208.248 70.6715 208.533 73.59 208.533 97.1939C208.533 113.959 209.133 123.951 210.142 123.951C211.174 123.951 211.751 109.195 211.751 82.9024C211.751 42.9274 211.835 41.8537 214.97 41.8537C218.059 41.8537 218.204 43.0433 218.537 71.2317C218.815 94.718 218.986 96.7013 219.39 81.1269C219.863 62.8095 220.132 61.4186 223.871 57.9061L227.846 54.1699V100.241V146.311L220.201 146.802L212.556 147.293L212.099 164.598L211.642 181.902H221.354H231.065V165.805V149.707H235.893H240.722V123.481V97.255L247.965 90.1463L255.207 83.0377V124.421V165.805H260.036H264.864V178.683V191.561H269.692H274.521V177.878C274.521 165.269 274.268 164.195 271.302 164.195C268.215 164.195 268.083 163.121 268.083 137.914C268.083 112.525 268.208 111.516 271.807 108.134C273.856 106.208 276.009 104.634 276.592 104.634C277.175 104.634 277.873 114.956 278.145 127.573L278.639 150.512L278.995 127.573C279.19 114.956 279.948 104.634 280.679 104.634C281.409 104.634 283.582 106.312 285.507 108.359C288.811 111.878 289.006 113.583 289.006 138.944V165.805H297.858H306.71V116.229V66.6536L313.148 60.3659L319.586 54.0781V35.8927V17.7073H326.024H332.462V58.7561V99.8049H325.219H317.976V119.206V138.608L326.426 138.12L334.876 137.634L335.331 120.427L335.787 103.221L340.964 102.72L346.142 102.22L346.606 87.3293L347.067 72.439H353.446H359.823V107.049V141.659H366.26H372.698V158.561V175.463H379.136H385.574V157.858V140.253L380.343 139.748L375.112 139.244L374.673 110.671L374.234 82.0976H383.927H393.621V96.4839V110.869L398.852 111.374L404.083 111.878L404.514 150.915L404.946 189.951H431.473C448.084 189.951 458 189.349 458 188.341C458 187.358 450.489 186.732 438.686 186.732H419.373V154.733C419.373 128.254 418.956 122.39 416.959 120.732C415.291 119.347 414.544 115.663 414.544 108.813V98.8986L405.243 89.694L395.942 80.4878H384.32H372.698V110.268V140.049H367.065H361.432V105.439C361.432 75.7487 361.089 70.8293 359.018 70.8293C357.317 70.8293 356.604 69.1084 356.604 65.0052C356.604 60.8295 355.237 57.6244 351.775 53.6805C347.51 48.8223 346.947 47.0049 346.947 38.0997C346.947 28.5522 346.623 27.7039 340.844 22.0585C335.296 16.6401 333.931 16.0976 325.855 16.0976C318.221 16.0976 316.36 16.7334 312.644 20.6129C308.463 24.977 308.32 25.7432 308.32 43.6324C308.32 53.8093 307.607 62.8497 306.734 63.7222C305.781 64.6752 304.978 84.9002 304.722 114.349L304.296 163.39L298.26 163.889L292.225 164.39V137.864V111.34L285.402 105.671C279.381 100.669 278.277 100.275 276.021 102.319C272.16 105.814 271.302 105.185 271.302 98.8567C271.302 94.1015 269.984 91.798 263.861 85.8451L256.419 78.6124L250.181 84.7054L243.941 90.7999V77.9299V65.0599L236.982 58.2281C232.205 53.5405 229.174 51.7215 227.325 52.4314C225.253 53.2266 224.627 52.5505 224.627 49.5193C224.627 44.3134 219.915 40.2439 213.886 40.2439C205.88 40.2439 203.704 44.2941 203.704 59.1907C203.704 66.3719 202.98 72.6966 202.095 73.2439C201.209 73.7912 200.485 77.8172 200.485 82.1925C200.485 86.5679 199.761 90.1463 198.876 90.1463C197.846 90.1463 197.266 75.4911 197.266 49.3986V8.65083L192.752 4.32541C188.622 0.368629 187.143 0 175.363 0C162.914 0 162.32 0.175458 157.345 5.30897ZM159.227 75.8984C157.744 77.5371 155.919 78.8781 155.171 78.8781C154.422 78.8781 153.811 63.8944 153.811 45.5786C153.811 13.2628 153.917 12.1665 157.432 8.42386L161.053 4.56527L161.488 38.742C161.871 68.8412 161.602 73.2729 159.227 75.8984ZM195.657 43.4554C195.657 95.9608 193.964 130.39 191.38 130.39C189.608 130.39 189.219 119.038 189.219 67.3602C189.219 4.43166 189.224 4.33507 192.438 7.2439C195.459 9.97888 195.657 12.202 195.657 43.4554ZM317.976 36.6654C317.976 48.3056 317.324 53.3376 315.47 55.9825C314.093 57.9512 312.282 59.561 311.447 59.561C310.595 59.561 309.929 52.3734 309.929 43.1882C309.929 30.2119 310.481 26.2036 312.593 23.8711C314.057 22.2517 315.868 20.9268 316.616 20.9268C317.365 20.9268 317.976 28.0098 317.976 36.6654ZM343.691 27.2966C345.526 30.7238 345.963 45.0732 344.233 45.0732C343.626 45.0732 341.454 43.4988 339.405 41.5736C336.41 38.7581 335.68 36.3821 335.68 29.444C335.68 21.3454 335.877 20.9188 338.862 22.5173C340.612 23.4541 342.785 25.6048 343.691 27.2966ZM354.698 64.7412C354.249 69.3982 353.57 70.084 348.959 70.5283L343.728 71.0337V85.4185C343.728 99.6906 343.696 99.8049 339.704 99.8049H335.68L335.711 69.6219L335.742 39.439L345.474 49.4485C353.917 58.1347 355.139 60.1582 354.698 64.7412ZM207.002 68.1748C205.824 69.3531 205.314 66.4427 205.314 58.542C205.314 43.8272 207.585 41.5478 208.209 55.6348C208.479 61.739 207.952 67.225 207.002 68.1748ZM223.018 50.6123C223.018 53.6596 222.293 56.599 221.408 57.1463C220.436 57.7468 219.799 55.5527 219.799 51.6072C219.799 48.0142 220.523 45.0732 221.408 45.0732C222.293 45.0732 223.018 47.5651 223.018 50.6123ZM0.911247 102.5V143.268H-3.11243H-7.13609V98.7199V54.1699L-3.11243 57.9512L0.911247 61.7325V102.5ZM239.703 105.914L238.601 146.488H234.833H231.065V101.043V55.5977L235.935 60.4705L240.806 65.3416L239.703 105.914ZM269.641 100.523C269.613 104.113 268.527 108.456 267.227 110.173C265.381 112.615 264.864 118.863 264.864 138.746C264.864 163.121 264.729 164.195 261.645 164.195C258.511 164.195 258.426 163.121 258.426 123.636V83.0763L264.059 88.5366C268.702 93.0391 269.683 95.143 269.641 100.523ZM412.935 108.477V116.464L409.211 112.963C407.162 111.038 403.54 109.463 401.163 109.463C396.847 109.463 396.84 109.447 396.84 97.049V84.6329L404.888 92.561C412.399 99.9594 412.935 101.022 412.935 108.477ZM380.746 91.8623C380.746 96.2988 381.195 96.7479 385.172 96.2892C388.648 95.8899 389.707 94.8307 390.106 91.3537C390.565 87.376 390.116 86.9268 385.68 86.9268C381.246 86.9268 380.746 87.4275 380.746 91.8623ZM387.183 90.9512C387.183 92.2793 386.097 93.3659 384.769 93.3659C383.441 93.3659 382.355 92.2793 382.355 90.9512C382.355 89.6232 383.441 88.5366 384.769 88.5366C386.097 88.5366 387.183 89.6232 387.183 90.9512ZM34.7101 128.225C34.7101 157.977 34.57 159.366 31.5861 159.366C29.8672 159.366 28.0195 158.648 27.4771 157.772C26.9363 156.895 27.0023 141.67 27.6268 123.938C28.7244 92.7171 28.8548 91.7835 31.7358 94.3913C34.4332 96.8333 34.7101 99.9803 34.7101 128.225ZM78.4409 100.859C80.8454 103.034 81.3846 105.986 81.3846 116.957C81.3846 130.213 81.3315 130.39 77.3609 130.39H73.3373V114.293C73.3373 105.439 73.8233 98.1951 74.4172 98.1951C75.0111 98.1951 76.8218 99.3944 78.4409 100.859ZM380.746 103.024C380.746 107.318 381.282 107.854 385.574 107.854C389.866 107.854 390.402 107.318 390.402 103.024C390.402 98.7312 389.866 98.1951 385.574 98.1951C381.282 98.1951 380.746 98.7312 380.746 103.024ZM387.183 103.024C387.183 104.813 386.11 106.244 384.769 106.244C383.429 106.244 382.355 104.813 382.355 103.024C382.355 101.236 383.429 99.8049 384.769 99.8049C386.11 99.8049 387.183 101.236 387.183 103.024ZM332.462 119.122V135.22H326.024H319.586V119.122V103.024H326.024H332.462V119.122ZM380.746 114.293C380.746 118.586 381.282 119.122 385.574 119.122C389.866 119.122 390.402 118.586 390.402 114.293C390.402 109.999 389.866 109.463 385.574 109.463C381.282 109.463 380.746 109.999 380.746 114.293ZM387.183 114.293C387.183 116.081 386.11 117.512 384.769 117.512C383.429 117.512 382.355 116.081 382.355 114.293C382.355 112.504 383.429 111.073 384.769 111.073C386.11 111.073 387.183 112.504 387.183 114.293ZM407.699 168.532C407.419 178.984 407.188 170.876 407.188 150.512C407.186 130.149 407.416 121.596 407.698 131.507C407.979 141.417 407.981 158.078 407.699 168.532ZM412.526 170.232C412.241 179.749 412.009 171.962 412.009 152.927C412.009 133.891 412.241 126.105 412.526 135.622C412.811 145.139 412.811 160.715 412.526 170.232ZM380.746 125.455C380.746 129.89 381.246 130.39 385.68 130.39C390.116 130.39 390.565 129.941 390.106 125.963C389.707 122.486 388.648 121.427 385.172 121.028C381.195 120.569 380.746 121.018 380.746 125.455ZM111.965 130.39C111.965 136.676 111.831 136.829 106.331 136.829C100.832 136.829 100.698 136.676 100.698 130.39C100.698 124.104 100.832 123.951 106.331 123.951C111.831 123.951 111.965 124.104 111.965 130.39ZM387.183 126.366C387.183 127.694 386.097 128.78 384.769 128.78C383.441 128.78 382.355 127.694 382.355 126.366C382.355 125.038 383.441 123.951 384.769 123.951C386.097 123.951 387.183 125.038 387.183 126.366ZM417.763 155.341C417.763 175.195 417.171 186.732 416.154 186.732C415.137 186.732 414.544 175.195 414.544 155.341C414.544 135.488 415.137 123.951 416.154 123.951C417.171 123.951 417.763 135.488 417.763 155.341ZM71.7278 158.561V185.122H65.2899H58.8521V158.561V132H65.2899H71.7278V158.561ZM161.053 165V195.585H157.03H153.006L152.565 166.664C152.322 150.757 152.501 136.762 152.961 135.562C153.42 134.365 155.43 133.616 157.426 133.9C161.044 134.413 161.053 134.489 161.053 165ZM383.965 157.862V174.068L379.538 173.557L375.112 173.049L374.652 157.354L374.192 141.659H379.078H383.965V157.862ZM15.0408 167.012L15.4898 188.341H11.4195H7.34911V166.497C7.34911 144.765 7.36843 144.658 10.9704 145.168C14.4919 145.668 14.6046 146.275 15.0408 167.012ZM227.846 165V180.293H221.408H214.97V165V149.707H221.408H227.846V165ZM272.58 177.347C272.274 184.792 271.392 189.125 270.095 189.554C268.604 190.048 268.083 187.06 268.083 178.012C268.083 168.081 268.546 165.805 270.568 165.805C272.62 165.805 272.971 167.811 272.58 177.347Z" fill="#2F83C5"/>
</svg>
